<svg width="39" height="38" viewBox="0 0 39 38" fill="none" xmlns="http://www.w3.org/2000/svg">

    <!-- Social icons dark theme -->
    <g id="linkedInDark">
        <ellipse cx="19.3521" cy="18.868" rx="18.8683" ry="18.8683" fill="url(#paint0_linear_1_3196)"/>
        <path d="M10.0634 28.7051H14.0114V14.0974H10.0634V28.7051ZM12.0374 7.64899C10.7214 7.64899 9.66858 8.70179 9.66858 10.0178C9.66858 11.3338 10.7214 12.3866 12.0374 12.3866C13.3534 12.3866 14.4062 11.3338 14.4062 10.0178C14.4062 8.70179 13.3534 7.64899 12.0374 7.64899ZM20.723 16.3346V14.0974H16.775V28.7051H20.723V21.2039C20.723 16.9926 26.1187 16.7294 26.1187 21.2039V28.7051H30.0667V19.7563C30.0667 12.6498 22.5655 12.913 20.723 16.3346Z"
              fill="#1F2626"/>
        <defs>
            <linearGradient id="paint0_linear_1_3196" x1="0.483887" y1="18.868" x2="38.2204" y2="18.868"
                            gradientUnits="userSpaceOnUse">
                <stop stop-color="#00F5A0"/>
                <stop offset="1" stop-color="#00D9F5"/>
            </linearGradient>
        </defs>
    </g>
    <g id="gitHubDark">
        <circle cx="19.2141" cy="18.8683" r="18.8683" fill="#1F2626"/>
        <g clip-path="url(#clip0_1_3203)">
            <path fill-rule="evenodd" clip-rule="evenodd"
                  d="M19.2141 0C8.78937 0 0.345825 8.44354 0.345825 18.8682C0.345825 27.2175 5.74686 34.2695 13.247 36.7695C14.1904 36.9346 14.5442 36.3686 14.5442 35.8733C14.5442 35.4251 14.5206 33.9393 14.5206 32.3591C9.77995 33.2317 8.55351 31.2034 8.17615 30.142C7.96388 29.5996 7.04405 27.925 6.24215 27.4769C5.58177 27.1231 4.63835 26.2505 6.21857 26.2269C7.70444 26.2033 8.76578 27.5948 9.11956 28.1609C10.8177 31.0147 13.53 30.2128 14.6149 29.7175C14.78 28.4911 15.2753 27.6656 15.8178 27.1939C11.6196 26.7222 7.23274 25.0948 7.23274 17.8777C7.23274 15.8257 7.96388 14.1276 9.16673 12.8068C8.97805 12.3351 8.31766 10.4011 9.35542 7.80674C9.35542 7.80674 10.9356 7.31145 14.5442 9.74073C16.0536 9.3162 17.6574 9.10393 19.2612 9.10393C20.865 9.10393 22.4688 9.3162 23.9783 9.74073C27.5869 7.28786 29.1671 7.80674 29.1671 7.80674C30.2048 10.4011 29.5444 12.3351 29.3558 12.8068C30.5586 14.1276 31.2898 15.8022 31.2898 17.8777C31.2898 25.1184 26.8793 26.7222 22.6811 27.1939C23.3651 27.7835 23.9547 28.9156 23.9547 30.6845C23.9547 33.2081 23.9311 35.2365 23.9311 35.8733C23.9311 36.3686 24.2849 36.9582 25.2283 36.7695C28.974 35.5049 32.2287 33.0976 34.5346 29.8863C36.8404 26.6751 38.0812 22.8216 38.0823 18.8682C38.0823 8.44354 29.6388 0 19.2141 0Z"
                  fill="url(#paint0_linear_1_3203)"/>
        </g>
        <defs>
            <linearGradient id="paint0_linear_1_3203" x1="0.345825" y1="18.4028" x2="38.0823" y2="18.4028"
                            gradientUnits="userSpaceOnUse">
                <stop stop-color="#00F5A0"/>
                <stop offset="1" stop-color="#00D9F5"/>
            </linearGradient>
            <clipPath id="clip0_1_3203">
                <rect width="37.7365" height="37.7365" fill="white" transform="translate(0.345825)"/>
            </clipPath>
        </defs>
    </g>
</svg>
